<?xml version="1.0" encoding="iso-8859-1"?>
<!-- Generator: Adobe Illustrator 22.1.0, SVG Export Plug-In . SVG Version: 6.00 Build 0)  -->
<svg version="1.1" id="Layer_1" xmlns="http://www.w3.org/2000/svg" xmlns:xlink="http://www.w3.org/1999/xlink" x="0px" y="0px"
	 viewBox="0 0 101.226 90" style="enable-background:new 0 0 101.226 90;" xml:space="preserve">
<g>
	<g>
		<rect x="0.405" style="fill-rule:evenodd;clip-rule:evenodd;fill:#034EA1;" width="100.4" height="75.239"/>
		<g>
			<path style="fill-rule:evenodd;clip-rule:evenodd;fill:#FFFFFF;" d="M20.479,29.617c0,0,11.521-28.718,80.364-25.416v4.198
				c0,0-33.246-7.5-61.101,10.392c-2.807,1.985-9.74,8.284-10.803,10.826H20.479z"/>
			<path style="fill-rule:evenodd;clip-rule:evenodd;fill:#FFFFFF;" d="M21.449,38.952c0,0,11.372-28.722,79.373-25.41v4.195
				c0,0-32.837-7.507-60.339,10.39c-2.788,1.988-9.637,8.288-10.681,10.826H21.449z"/>
			<path style="fill-rule:evenodd;clip-rule:evenodd;fill:#FFFFFF;" d="M22.416,48.294c0,0,11.23-28.724,78.41-25.414v4.195
				c0,0-32.443-7.506-59.611,10.385c-2.756,1.997-9.514,8.29-10.546,10.833H22.416z"/>
		</g>
		<g>
			<polygon points="13.797,47.847 7.622,47.847 7.622,69.909 24.12,69.909 24.12,65.759 13.797,65.759 			"/>
			<rect x="26.729" y="53.257" width="5.812" height="16.652"/>
			<path d="M48.514,52.734c-1.08,0-2.073,0.206-2.962,0.61c-0.9,0.397-1.818,0.967-2.76,1.704v-1.791h-5.813v16.652h5.813V58.057
				c0.545-0.342,1.057-0.59,1.541-0.752c0.477-0.165,0.964-0.235,1.43-0.235c0.619,0,1.12,0.08,1.493,0.245
				c0.374,0.166,0.657,0.432,0.857,0.801c0.16,0.321,0.265,0.822,0.33,1.488c0.064,0.678,0.1,1.351,0.1,2.024v8.281h5.806V59.038
				c0-2.044-0.511-3.612-1.5-4.684C51.853,53.279,50.406,52.734,48.514,52.734z"/>
			<polygon points="76.817,53.257 69.944,53.257 64.52,59.725 64.52,46.868 58.709,46.868 58.709,69.909 64.52,69.909 64.52,63.747 
				65.368,62.724 70.341,69.909 77.311,69.909 70.323,60.435 			"/>
			<path d="M96.473,60.791c-0.328-0.634-0.734-1.147-1.226-1.552c-0.537-0.437-1.077-0.745-1.644-0.952
				c-0.553-0.183-1.122-0.318-1.702-0.407v-0.209c1.329-0.289,2.406-0.926,3.219-1.916c0.819-0.983,1.221-2.122,1.221-3.434
				c0-0.922-0.206-1.758-0.626-2.5c-0.411-0.747-1.054-1.362-1.884-1.844c-0.769-0.451-1.684-0.793-2.76-1.034
				c-1.07-0.241-2.347-0.366-3.822-0.366c-1.496,0-2.972,0.163-4.404,0.475c-0.437,0.093-0.81,0.195-1.192,0.302l-0.197,4.775
				c0.354-0.173,0.707-0.33,1.041-0.444c0.581-0.198,1.191-0.358,1.824-0.496c0.624-0.131,1.246-0.201,1.846-0.201
				c0.365,0,0.815,0.032,1.35,0.089c0.529,0.069,0.984,0.19,1.382,0.381c0.342,0.165,0.628,0.392,0.858,0.678
				c0.224,0.304,0.338,0.685,0.338,1.154c0,0.594-0.118,1.075-0.367,1.427c-0.247,0.347-0.598,0.606-1.04,0.811
				c-0.433,0.181-0.97,0.309-1.595,0.368c-0.63,0.064-2.062,0.098-2.816,0.098H83.3V60h1.067c0.556,0,1.958,0.008,2.701,0.032
				c0.732,0.017,1.374,0.125,1.898,0.293c0.529,0.168,0.95,0.429,1.277,0.795c0.318,0.364,0.473,0.882,0.473,1.572
				c0,0.684-0.104,1.207-0.332,1.588c-0.227,0.368-0.528,0.689-0.902,0.943c-0.473,0.335-1.053,0.551-1.763,0.645
				c-0.702,0.097-1.338,0.144-1.943,0.144c-1.003,0-2.113-0.195-3.334-0.59c-0.721-0.224-1.361-0.48-1.976-0.757l-0.18,4.9
				c0.519,0.147,1.093,0.288,1.73,0.424c1.378,0.288,3.022,0.433,4.952,0.433c1.684,0,3.122-0.177,4.287-0.502
				c1.176-0.339,2.214-0.836,3.075-1.482c0.862-0.641,1.515-1.408,1.967-2.345c0.442-0.926,0.662-1.941,0.662-3.049
				C96.958,62.173,96.801,61.424,96.473,60.791z"/>
		</g>
		<g>
			<polygon style="fill:#FFFFFF;" points="12.008,45.802 5.823,45.802 5.823,67.859 22.333,67.859 22.333,63.718 12.008,63.718 			
				"/>
			<rect x="24.942" y="51.216" style="fill:#FFFFFF;" width="5.81" height="16.644"/>
			<path style="fill:#FFFFFF;" d="M46.735,50.698c-1.095,0-2.084,0.201-2.979,0.602c-0.894,0.407-1.815,0.97-2.755,1.707v-1.791
				h-5.817v16.644h5.817V56.016c0.541-0.346,1.055-0.599,1.544-0.754c0.478-0.156,0.957-0.245,1.422-0.245
				c0.623,0,1.127,0.089,1.5,0.257c0.372,0.161,0.658,0.425,0.85,0.801c0.161,0.317,0.273,0.815,0.338,1.491
				c0.058,0.675,0.087,1.344,0.087,2.019v8.274h5.814V56.998c0-2.046-0.499-3.614-1.498-4.689
				C50.059,51.228,48.617,50.698,46.735,50.698z"/>
			<polygon style="fill:#FFFFFF;" points="75.021,51.216 68.153,51.216 62.725,57.677 62.725,44.827 56.913,44.827 56.913,67.859 
				62.725,67.859 62.725,61.703 63.575,60.676 68.545,67.859 75.516,67.859 68.543,58.393 			"/>
			<path style="fill:#FFFFFF;" d="M94.682,58.749c-0.328-0.632-0.734-1.142-1.231-1.554c-0.536-0.435-1.075-0.754-1.628-0.951
				c-0.569-0.184-1.127-0.321-1.714-0.405v-0.216c1.323-0.282,2.402-0.923,3.221-1.906c0.822-0.983,1.227-2.13,1.227-3.427
				c0-0.936-0.217-1.767-0.633-2.515c-0.414-0.742-1.05-1.351-1.887-1.84c-0.762-0.447-1.681-0.798-2.754-1.032
				c-1.08-0.236-2.347-0.363-3.821-0.363c-1.493,0-2.963,0.16-4.411,0.472c-0.435,0.089-0.801,0.196-1.189,0.297l-0.193,4.772
				c0.354-0.152,0.7-0.334,1.034-0.435c0.589-0.203,1.201-0.368,1.821-0.495c0.628-0.126,1.25-0.205,1.847-0.205
				c0.376,0,0.831,0.04,1.356,0.097c0.529,0.058,0.992,0.188,1.384,0.368c0.341,0.172,0.629,0.393,0.853,0.693
				c0.235,0.295,0.346,0.682,0.346,1.139c0,0.608-0.123,1.078-0.369,1.434c-0.249,0.342-0.584,0.619-1.039,0.811
				c-0.437,0.177-0.974,0.303-1.601,0.374c-0.633,0.061-2.062,0.093-2.81,0.093h-0.972v3.997h1.053c0.563,0,1.959,0.017,2.698,0.032
				c0.739,0.019,1.372,0.125,1.907,0.302c0.527,0.166,0.956,0.428,1.271,0.789c0.323,0.365,0.482,0.894,0.482,1.571
				c0,0.684-0.113,1.217-0.338,1.592c-0.231,0.379-0.522,0.691-0.901,0.944c-0.471,0.331-1.061,0.549-1.764,0.642
				c-0.69,0.094-1.342,0.144-1.936,0.144c-1.002,0-2.117-0.184-3.34-0.584c-0.722-0.223-1.356-0.482-1.971-0.767l-0.194,4.898
				c0.525,0.155,1.1,0.293,1.735,0.433c1.381,0.292,3.034,0.43,4.949,0.43c1.696,0,3.118-0.162,4.3-0.5
				c1.171-0.345,2.203-0.83,3.07-1.489c0.861-0.63,1.516-1.408,1.965-2.335c0.444-0.916,0.671-1.938,0.671-3.051
				C95.175,60.13,95.009,59.383,94.682,58.749z"/>
		</g>
	</g>
	<g>
		<path d="M1.912,81.94H0v-1.345h5.454v1.345H3.514v5.741H1.912V81.94z"/>
		<path d="M7.903,80.595v2.726h2.642v-2.726h1.602v7.086h-1.602v-2.965H7.903v2.965H6.301v-7.086H7.903z"/>
		<path d="M17.751,84.684h-2.608v1.685h2.915v1.312h-4.517v-7.086h4.365v1.312h-2.763v1.476h2.608V84.684z"/>
		<path d="M21.331,86.027c0.424,0.228,1.091,0.445,1.776,0.445c0.736,0,1.126-0.305,1.126-0.772c0-0.435-0.338-0.691-1.186-0.99
			c-1.182-0.419-1.955-1.063-1.955-2.098c0-1.208,1.014-2.127,2.68-2.127c0.808,0,1.391,0.161,1.809,0.357l-0.354,1.286
			c-0.281-0.134-0.791-0.337-1.479-0.337c-0.698,0-1.031,0.323-1.031,0.685c0,0.45,0.393,0.65,1.312,0.997
			c1.255,0.469,1.835,1.12,1.835,2.122c0,1.183-0.906,2.198-2.857,2.198c-0.803,0-1.606-0.218-2.001-0.44L21.331,86.027z"/>
		<path d="M28.205,85.623c0.048,0.664,0.704,0.979,1.45,0.979c0.541,0,0.985-0.072,1.416-0.218l0.216,1.082
			c-0.532,0.217-1.174,0.325-1.864,0.325c-1.743,0-2.744-1.015-2.744-2.618c0-1.308,0.816-2.754,2.594-2.754
			c1.668,0,2.297,1.296,2.297,2.569c0,0.279-0.029,0.515-0.057,0.634H28.205z M30.083,84.526c0.003-0.385-0.169-1.042-0.897-1.042
			c-0.676,0-0.95,0.617-0.994,1.042H30.083z"/>
		<path d="M32.52,84.231c0-0.755-0.014-1.253-0.042-1.696h1.375l0.058,0.953h0.039c0.264-0.753,0.89-1.068,1.389-1.068
			c0.148,0,0.223,0.004,0.342,0.03v1.505c-0.124-0.027-0.253-0.045-0.433-0.045c-0.588,0-0.989,0.312-1.097,0.812
			c-0.02,0.101-0.03,0.227-0.03,0.356v2.604H32.52V84.231z"/>
		<path d="M37.895,82.535l0.692,2.393c0.125,0.434,0.215,0.84,0.295,1.252h0.034c0.079-0.425,0.167-0.81,0.285-1.252l0.66-2.393
			h1.682l-1.916,5.146H38.03l-1.871-5.146H37.895z"/>
		<path d="M43.921,81.107c0.002,0.446-0.327,0.799-0.86,0.799c-0.506,0-0.834-0.354-0.832-0.799
			c-0.002-0.457,0.334-0.801,0.847-0.801C43.592,80.306,43.914,80.648,43.921,81.107z M42.273,87.681v-5.146h1.602v5.146H42.273z"/>
		<path d="M49.016,87.552c-0.288,0.133-0.824,0.239-1.433,0.239c-1.663,0-2.722-1.018-2.722-2.634c0-1.504,1.029-2.734,2.942-2.734
			c0.423,0,0.887,0.077,1.221,0.203l-0.249,1.188c-0.193-0.086-0.474-0.164-0.895-0.164c-0.846,0-1.389,0.6-1.382,1.442
			c0,0.945,0.634,1.446,1.408,1.446c0.382,0,0.676-0.067,0.922-0.167L49.016,87.552z"/>
		<path d="M51.01,85.623c0.048,0.664,0.704,0.979,1.45,0.979c0.541,0,0.984-0.072,1.416-0.218l0.216,1.082
			c-0.533,0.217-1.175,0.325-1.864,0.325c-1.743,0-2.744-1.015-2.744-2.618c0-1.308,0.816-2.754,2.594-2.754
			c1.667,0,2.297,1.296,2.297,2.569c0,0.279-0.029,0.515-0.057,0.634H51.01z M52.888,84.526c0.003-0.385-0.169-1.042-0.897-1.042
			c-0.676,0-0.95,0.617-0.994,1.042H52.888z"/>
		<path d="M62.704,87.486c-0.287,0.142-0.958,0.305-1.811,0.305c-2.453,0-3.718-1.533-3.718-3.553c0-2.416,1.731-3.754,3.87-3.754
			c0.834,0,1.466,0.163,1.745,0.315l-0.327,1.266c-0.318-0.139-0.773-0.266-1.346-0.266c-1.264,0-2.255,0.77-2.255,2.345
			c0,1.421,0.837,2.313,2.264,2.313c0.491,0,1.022-0.097,1.34-0.229L62.704,87.486z"/>
		<path d="M68.583,85.057c0,1.88-1.332,2.74-2.712,2.74c-1.497,0-2.657-0.99-2.657-2.651c0-1.661,1.095-2.726,2.749-2.726
			C67.537,82.419,68.583,83.503,68.583,85.057z M64.862,85.109c0,0.878,0.371,1.544,1.053,1.544c0.624,0,1.018-0.624,1.018-1.552
			c0-0.759-0.292-1.539-1.017-1.539C65.154,83.562,64.862,84.347,64.862,85.109z"/>
		<path d="M69.568,84.179c0-0.641-0.02-1.183-0.042-1.644h1.352l0.068,0.697h0.034c0.218-0.326,0.676-0.812,1.552-0.812
			c0.669,0,1.187,0.342,1.409,0.882h0.021c0.192-0.272,0.42-0.482,0.668-0.628c0.279-0.167,0.593-0.255,0.977-0.255
			c0.983,0,1.732,0.695,1.732,2.233v3.029h-1.557v-2.795c0-0.745-0.24-1.178-0.757-1.178c-0.372,0-0.628,0.252-0.736,0.558
			c-0.039,0.116-0.057,0.277-0.057,0.406v3.009h-1.557v-2.884c0-0.648-0.231-1.088-0.741-1.088c-0.411,0-0.654,0.315-0.75,0.574
			c-0.047,0.125-0.06,0.271-0.06,0.405v2.993h-1.557V84.179z"/>
		<path d="M78.609,84.265c0-0.677-0.02-1.247-0.042-1.73h1.39l0.075,0.721h0.021c0.382-0.543,0.967-0.836,1.714-0.836
			c1.126,0,2.138,0.98,2.138,2.621c0,1.876-1.195,2.756-2.34,2.756c-0.614,0-1.106-0.247-1.333-0.587h-0.021v2.552h-1.6V84.265z
			 M80.209,85.478c0,0.12,0.01,0.232,0.032,0.334c0.103,0.428,0.473,0.758,0.935,0.758c0.691,0,1.104-0.582,1.104-1.455
			c0-0.819-0.366-1.444-1.078-1.444c-0.453,0-0.86,0.342-0.957,0.809c-0.024,0.091-0.036,0.189-0.036,0.286V85.478z"/>
		<path d="M87.819,87.681l-0.094-0.511h-0.034c-0.336,0.41-0.861,0.627-1.47,0.627c-1.048,0-1.663-0.752-1.663-1.574
			c0-1.34,1.199-1.976,3.019-1.973v-0.066c0-0.274-0.146-0.665-0.942-0.663c-0.525,0-1.076,0.178-1.418,0.384l-0.294-1.024
			c0.358-0.205,1.06-0.461,1.999-0.461c1.713,0,2.255,1.012,2.255,2.221v1.794c0,0.491,0.026,0.958,0.081,1.246H87.819z
			 M87.626,85.248c-0.842-0.005-1.492,0.199-1.492,0.811c0,0.414,0.271,0.616,0.635,0.616c0.391,0,0.723-0.262,0.827-0.591
			c0.025-0.083,0.03-0.182,0.03-0.273V85.248z"/>
		<path d="M90.446,84.179c0-0.641-0.02-1.183-0.042-1.644h1.387l0.074,0.713h0.034c0.208-0.331,0.732-0.829,1.59-0.829
			c1.051,0,1.842,0.701,1.842,2.216v3.046h-1.602v-2.852c0-0.663-0.237-1.116-0.814-1.116c-0.44,0-0.701,0.308-0.811,0.604
			c-0.041,0.101-0.056,0.253-0.056,0.396v2.969h-1.602V84.179z"/>
		<path d="M97.598,82.535l0.769,2.53c0.088,0.301,0.188,0.686,0.257,0.956h0.034c0.071-0.278,0.153-0.66,0.229-0.958l0.634-2.527
			h1.707l-1.193,3.387c-0.738,2.044-1.231,2.859-1.812,3.374c-0.551,0.482-1.14,0.661-1.54,0.704l-0.343-1.349
			c0.204-0.038,0.451-0.131,0.696-0.272c0.244-0.129,0.51-0.386,0.659-0.642c0.055-0.081,0.09-0.162,0.09-0.23
			c0-0.06-0.014-0.137-0.071-0.265l-1.885-4.707H97.598z"/>
	</g>
</g>
</svg>
